<svg width="1002" height="1719" viewBox="0 0 1002 1719" fill="none" xmlns="http://www.w3.org/2000/svg">
<path d="M13 1.5C-7 259.5 435.4 -42.5 255 281.5C29.5 686.5 458.5 718.5 549 648C639.5 577.5 569.5 400.5 819 414.5C1068.5 428.5 1000 666 947.5 732.5C891.73 803.142 792.5 857.5 611.5 732.5C391.84 580.801 231 487 243 799C255 1111 460.5 1159.5 704 1137.5C947.5 1115.5 1070.5 1413.5 730 1355C377.235 1294.39 490.5 1345 255 1484C114.168 1567.12 99.6667 1694.67 79.5 1715.5" stroke="#0000FF" stroke-width="23"/>
</svg>
