<svg width="1919" height="3208" viewBox="0 0 1919 3208" fill="none" xmlns="http://www.w3.org/2000/svg">
<path d="M1.27777 1C-37.4304 483.734 818.794 -81.3268 469.646 524.897C33.212 1282.68 863.502 1342.55 1038.66 1210.64C1213.81 1078.73 1078.33 747.554 1561.22 773.749C2044.1 799.943 1911.52 1244.32 1809.92 1368.75C1701.98 1500.92 1509.93 1602.63 1159.62 1368.75C734.487 1084.91 423.196 909.401 446.421 1493.17C469.646 2076.94 867.372 2167.69 1338.64 2126.53C1809.92 2085.36 2047.97 2642.94 1388.96 2533.48C706.221 2420.08 925.435 2514.77 469.646 2774.85C197.08 2930.38 169.013 3169.02 129.982 3208" stroke="#0000FF" stroke-width="23"/>
</svg>
